<svg width="16" height="16" viewBox="0 0 16 16" fill="none" xmlns="http://www.w3.org/2000/svg">
    <path fill-rule="evenodd" clip-rule="evenodd" d="M8.58055 9.88622L8.57354 9.91566V10.2106H7.42646V9.92656C7.42646 9.92689 7.4265 9.92679 7.42659 9.92621C7.42669 9.92554 7.42688 9.92422 7.42715 9.92219C7.42895 9.90902 7.43482 9.86609 7.45119 9.77731C7.46995 9.67554 7.49846 9.53355 7.53697 9.35038C7.59944 9.05332 7.80424 8.70803 8.19502 8.31516C8.28329 8.23938 8.37458 8.16058 8.46889 8.07874C8.56506 7.9953 8.66438 7.9087 8.76684 7.81895C9.0675 7.57014 9.31713 7.3406 9.51333 7.13062C9.73931 6.88877 9.86326 6.60491 9.86326 6.28643C9.86326 5.7776 9.67699 5.33705 9.31207 4.97916C8.94844 4.62254 8.50664 4.44065 8 4.44065C7.49336 4.44065 7.05155 4.62254 6.68793 4.97916C6.38619 5.27509 6.20659 5.62753 6.15345 6.02836H5.01889C5.07436 5.31755 5.36304 4.70276 5.89083 4.17435C6.48146 3.58303 7.18002 3.29161 8 3.29161C8.81998 3.29161 9.51854 3.58303 10.1092 4.17435C10.6998 4.76569 10.991 5.46521 10.991 6.28643C10.991 6.89177 10.8178 7.36543 10.4874 7.72985C10.1131 8.14267 9.77173 8.47112 9.46318 8.71825L9.22714 8.91518C9.15083 8.97885 9.08127 9.03582 9.0184 9.08618L9.00724 9.09511L8.99714 9.10523C8.81673 9.28584 8.67745 9.47874 8.62889 9.68291L8.58055 9.88622ZM0 7.99032C0 6.88858 0.212369 5.8524 0.636097 4.87918L0.636728 4.87772C1.04958 3.91327 1.61788 3.06956 2.34199 2.34461C3.0658 1.61995 3.91491 1.04437 4.89154 0.61798C5.86375 0.206378 6.89909 0 8 0C9.10091 0 10.1362 0.206376 11.1084 0.617973C12.0851 1.04436 12.9342 1.61994 13.658 2.34461C14.3821 3.06956 14.9504 3.91327 15.3633 4.87772L15.3639 4.87918C15.7876 5.8524 16 6.88858 16 7.99032C16 9.09205 15.7876 10.1282 15.3639 11.1015L15.3628 11.104C14.9498 12.0813 14.3816 12.931 13.658 13.6554C12.9345 14.3798 12.0858 14.9487 11.1097 15.3621L11.1072 15.3632C10.1352 15.7874 9.10032 16 8 16C6.89968 16 5.86482 15.7874 4.89283 15.3632L4.89026 15.3621C3.9142 14.9487 3.06554 14.3798 2.34199 13.6554C1.61843 12.931 1.05019 12.0813 0.637211 11.104L0.636097 11.1015C0.212369 10.1282 0 9.09205 0 7.99032ZM8.57354 11.5594V12.689H7.42646V11.5594H8.57354ZM5.32468 14.326C6.1582 14.6894 7.05089 14.8703 8 14.8703C8.94911 14.8703 9.8418 14.6894 10.6753 14.326C11.5035 13.965 12.2301 13.4725 12.8531 12.8487C13.4765 12.2246 13.9622 11.4967 14.31 10.6669C14.6725 9.8329 14.8529 8.93981 14.8529 7.99032C14.8529 7.05293 14.6722 6.16023 14.3103 5.31449C13.9624 4.48414 13.4763 3.75876 12.8521 3.14062C12.2292 2.52366 11.5029 2.03479 10.6753 1.67397C9.8418 1.31055 8.94911 1.12968 8 1.12968C7.05089 1.12968 6.1582 1.31055 5.32468 1.67397C4.49708 2.03479 3.77079 2.52366 3.14786 3.14062C2.52374 3.75875 2.03763 4.48413 1.68969 5.31447C1.3278 6.16022 1.14709 7.05293 1.14709 7.99032C1.14709 8.93981 1.3275 9.83289 1.68998 10.6668C2.03779 11.4967 2.52352 12.2246 3.14687 12.8487C3.7699 13.4725 4.4965 13.965 5.32468 14.326Z" fill="white"/>
</svg>