<svg width="16" height="16" viewBox="0 0 16 16" fill="none" xmlns="http://www.w3.org/2000/svg">
    <path d="M15 5H14V1C14 0.729165 13.901 0.494793 13.7031 0.296875C13.5052 0.0989573 13.2708 0 13 0H3C2.72917 0 2.49479 0.0989573 2.29688 0.296875C2.09896 0.494793 2 0.729165 2 1V5H1C0.729165 5 0.494793 5.09896 0.296875 5.29688C0.0989573 5.49479 0 5.72917 0 6V11C0 11.2708 0.0989573 11.5052 0.296875 11.7031C0.494793 11.901 0.729165 12 1 12H2V15C2 15.2708 2.09896 15.5052 2.29688 15.7031C2.49479 15.901 2.72917 16 3 16H13C13.2708 16 13.5052 15.901 13.7031 15.7031C13.901 15.5052 14 15.2708 14 15V12H15C15.2708 12 15.5052 11.901 15.7031 11.7031C15.901 11.5052 16 11.2708 16 11V6C16 5.72917 15.901 5.49479 15.7031 5.29688C15.5052 5.09896 15.2708 5 15 5ZM3 10H13V15H3V10ZM13 9H3C2.72917 9 2.49479 9.09896 2.29688 9.29688C2.09896 9.49479 2 9.72917 2 10V11H1V6H15V11H14V10C14 9.72917 13.901 9.49479 13.7031 9.29688C13.5052 9.09896 13.2708 9 13 9ZM3 1H13V5H3V1ZM11.125 7.15625C11.0417 7.23958 11 7.35417 11 7.5C11 7.64583 11.0469 7.76562 11.1406 7.85938C11.2344 7.95313 11.3542 8 11.5 8C11.6458 8 11.7656 7.95313 11.8594 7.85938C11.9531 7.76562 12 7.64583 12 7.5C12 7.35417 11.9531 7.23438 11.8594 7.14062C11.7656 7.04687 11.6458 7 11.5 7C11.3542 7 11.2292 7.05208 11.125 7.15625ZM2.125 7.15625C2.04167 7.23958 2 7.35417 2 7.5C2 7.64583 2.04687 7.76562 2.14062 7.85938C2.23438 7.95313 2.35417 8 2.5 8C2.64583 8 2.76562 7.95313 2.85938 7.85938C2.95313 7.76562 3 7.64583 3 7.5C3 7.35417 2.95313 7.23438 2.85938 7.14062C2.76562 7.04687 2.64583 7 2.5 7C2.35417 7 2.22917 7.05208 2.125 7.15625ZM13.125 7.15625C13.0417 7.23958 13 7.35417 13 7.5C13 7.64583 13.0469 7.76562 13.1406 7.85938C13.2344 7.95313 13.3542 8 13.5 8C13.6458 8 13.7656 7.95313 13.8594 7.85938C13.9531 7.76562 14 7.64583 14 7.5C14 7.35417 13.9531 7.23438 13.8594 7.14062C13.7656 7.04687 13.6458 7 13.5 7C13.3542 7 13.2292 7.05208 13.125 7.15625ZM11.8438 11.875C11.9479 11.7708 12 11.6458 12 11.5C12 11.3542 11.9531 11.2344 11.8594 11.1406C11.7656 11.0469 11.6458 11 11.5 11H4.5C4.35417 11 4.23438 11.0469 4.14062 11.1406C4.04687 11.2344 4 11.3542 4 11.5C4 11.6458 4.04687 11.7656 4.14062 11.8594C4.23438 11.9531 4.35417 12 4.5 12H11.5C11.6458 12 11.7604 11.9583 11.8438 11.875ZM11.5 13H4.5C4.35417 13 4.23438 13.0469 4.14062 13.1406C4.04687 13.2344 4 13.3542 4 13.5C4 13.6458 4.04687 13.7656 4.14062 13.8594C4.23438 13.9531 4.35417 14 4.5 14H11.5C11.6458 14 11.7656 13.9531 11.8594 13.8594C11.9531 13.7656 12 13.6458 12 13.5C12 13.3542 11.9531 13.2344 11.8594 13.1406C11.7656 13.0469 11.6458 13 11.5 13Z" fill="white"/>
</svg>