<svg width="16" height="16" viewBox="0 0 16 16" fill="none" xmlns="http://www.w3.org/2000/svg">
    <path fill-rule="evenodd" clip-rule="evenodd" d="M0 8C0 3.56764 3.56764 0 8 0C12.4324 0 16 3.56764 16 8C16 12.4324 12.4324 16 8 16C3.56764 16 0 12.4324 0 8ZM8.21218 1.26216L8 0.955684L7.78782 1.26216C7.07593 2.29046 6.52013 3.40105 6.16259 4.63258L6.06678 4.96259H9.93322L9.83741 4.63258C9.47987 3.40105 8.92407 2.29046 8.21218 1.26216ZM6.0923 1.88497L6.41866 1.30755L5.78787 1.51256C4.17309 2.03736 2.88318 3.12749 2.03909 4.5745L1.8127 4.96259H4.90422L4.95433 4.76929C5.22102 3.74063 5.60103 2.75413 6.0923 1.88497ZM10.2121 1.51256L9.58134 1.30755L9.9077 1.88497C10.399 2.75413 10.779 3.74063 11.0457 4.76929L11.0958 4.96259H14.1873L13.9609 4.5745C13.1168 3.12749 11.8269 2.03736 10.2121 1.51256ZM4.69192 6.07481H1.40825L1.35477 6.26198C1.19313 6.82773 1.11222 7.39437 1.11222 8C1.11222 8.60563 1.19313 9.17227 1.35477 9.73802L1.40825 9.92519H4.69192L4.64984 9.63063C4.57407 9.10023 4.53612 8.56965 4.53612 8C4.53612 7.43035 4.57407 6.89977 4.64984 6.36938L4.69192 6.07481ZM10.194 6.29638L10.1623 6.07481H5.83767L5.80602 6.29638C5.72671 6.85156 5.68711 7.40654 5.68711 8C5.68711 8.59346 5.72671 9.14844 5.80602 9.70362L5.83767 9.92519H10.1623L10.194 9.70362C10.2733 9.14844 10.3129 8.59346 10.3129 8C10.3129 7.40654 10.2733 6.85156 10.194 6.29638ZM14.5918 6.07481H11.3081L11.3502 6.36938C11.4259 6.89977 11.4639 7.43035 11.4639 8C11.4639 8.56965 11.4259 9.10023 11.3502 9.63063L11.3081 9.92519H14.5918L14.6452 9.73802C14.8069 9.17227 14.8878 8.60563 14.8878 8C14.8878 7.39437 14.8069 6.82773 14.6452 6.26198L14.5918 6.07481ZM4.90422 11.0374H1.8127L2.03909 11.4255C2.88318 12.8725 4.17309 13.9626 5.78787 14.4874L6.41866 14.6924L6.0923 14.115C5.60103 13.2459 5.22102 12.2594 4.95433 11.2307L4.90422 11.0374ZM9.83741 11.3674L9.93322 11.0374H6.06678L6.16259 11.3674C6.52013 12.5989 7.07593 13.7095 7.78782 14.7378L8 15.0443L8.21218 14.7378C8.92407 13.7095 9.47987 12.5989 9.83741 11.3674ZM14.1873 11.0374H11.0958L11.0457 11.2307C10.779 12.2594 10.399 13.2459 9.9077 14.115L9.58134 14.6924L10.2121 14.4874C11.8269 13.9626 13.1168 12.8725 13.9609 11.4255L14.1873 11.0374Z" fill="white"/>
</svg>