<svg
    width="20"
    height="24"
    viewBox="0 0 20 24"
    fill="none"
    xmlns="http://www.w3.org/2000/svg"
>
    <path
        d="M17.7865 0H2.21354C1.6059 0 1.08507 0.234464 0.651042 0.7034C0.217012 1.17234 0 1.73505 0 2.39156V21.6084C0 22.2649 0.217012 22.8277 0.651042 23.2966C1.08507 23.7655 1.6059 24 2.21354 24H17.7865C18.3941 24 18.9149 23.7655 19.349 23.2966C19.783 22.8277 20 22.2649 20 21.6084V2.39156C20 1.73505 19.783 1.17234 19.349 0.7034C18.9149 0.234464 18.3941 0 17.7865 0ZM2.21354 21.6084V2.39156H17.7865V21.6084H2.21354ZM4.45312 11.9859H6.66667V14.4056H4.45312V11.9859ZM4.45312 16.7972H6.66667V19.1887H4.45312V16.7972ZM8.88021 11.9859H11.1198V14.4056H8.88021V11.9859ZM4.45312 4.78312H15.5469V9.59437H4.45312V4.78312ZM8.88021 16.7972H11.1198V19.1887H8.88021V16.7972ZM13.3333 11.9859H15.5469V19.1887H13.3333V11.9859Z"
        fill="white"
    />
</svg>